<svg height="401pt" preserveAspectRatio="xMidYMid meet" viewBox="0 0 401 401" width="401pt" xmlns="http://www.w3.org/2000/svg"><g transform="matrix(.1 0 0 -.1 0 401)"><path d="m1755 3995c-387-51-737-204-1035-453-850-710-963-1971-252-2822 800-959 2274-959 3074 0 726 869 592 2153-298 2860-413 328-968 483-1489 415zm-351-761c9-8 30-36 48-61 41-61 32-74-65-94-71-14-157-57-157-78 0-5 35-11 78-13 122-5 213-61 294-181 53-78 68-130 68-238 0-76-6-105-44-223-72-220-127-319-184-330-107-21-214-11-301 29-81 38-181 123-229 197-55 84-66 145-59 313 10 221 37 293 174 467 126 160 158 185 268 214 68 17 91 17 109-2zm1406-85c34-28 60-55 58-61-2-5-28-23-58-39-56-30-130-99-130-120 0-7 13-10 38-6 26 3 43-1 57-13 11-9 51-29 89-45 118-49 281-194 307-273 16-48 6-204-17-262-22-56-92-164-136-210-19-19-70-60-114-90l-79-55h-140c-134 0-142 1-185 27-69 41-117 91-130 136-9 28-11 105-7 263 6 270 17 326 108 506 74 150 130 220 207 261 31 17 60 32 64 32s34-23 68-51zm156-1573c8-22-24-106-49-127-48-40-306-158-422-193-246-73-267-76-521-76-239 0-318 8-449 48-56 17-60 21-59 48 1 16 12 52 26 79 28 60 29 60 173 19 97-27 107-28 355-28 237-1 261 1 339 22 175 48 359 114 461 166 113 57 138 64 146 42z"/><path d="m1198 2960c-29-17-135-155-167-217-44-84-61-175-61-331v-133l33-30c17-16 57-42 87-57 47-23 71-27 160-30 91-4 108-2 127 14 27 23 103 174 110 220 6 34 5 34-33 34-97 0-184 57-205 134-17 61-18 164-2 224 18 71 17 78-13 118-14 18-24 41-20 49 6 17 6 17-16 5z"/><path d="m1418 2813c-6-16-12-66-12-113-1-99 17-141 74-171 54-29 64-12 68 122 5 123 0 134-70 170-47 24-46 24-60-8z"/><path d="m2595 2787c-24-37-62-137-76-202-14-64-20-467-7-480 4-4 48-7 99-7h91l87 59c83 58 166 149 208 228 38 72 56 219 33 279-14 38-84 83-172 111-44 14-86 25-94 25-23 0-19-111 5-141 18-22 27-24 117-24 61-1 99-5 101-12 2-6-14-29-36-51-45-47-89-61-193-62-84 0-114 13-129 57-14 43-17 144-6 201 10 48-3 57-28 19z"/></g></svg>