<?xml version="1.0" standalone="no"?>
<!DOCTYPE svg PUBLIC "-//W3C//DTD SVG 20010904//EN"
 "http://www.w3.org/TR/2001/REC-SVG-20010904/DTD/svg10.dtd">
<svg version="1.0" xmlns="http://www.w3.org/2000/svg"
 width="700.000000pt" height="700.000000pt" viewBox="0 0 700.000000 700.000000"
 preserveAspectRatio="xMidYMid meet">
<metadata>
Created by potrace 1.14, written by Peter Selinger 2001-2017
</metadata>
<g transform="translate(0.000000,700.000000) scale(0.100000,-0.100000)"
fill="#000000" stroke="none">
<path d="M2230 5640 c-220 -47 -309 -114 -545 -410 -238 -298 -317 -446 -354
-665 -5 -33 -13 -78 -17 -100 -4 -22 -8 -177 -9 -345 l-2 -305 44 -89 c65
-130 115 -201 203 -286 129 -126 259 -211 408 -269 107 -41 188 -51 380 -48
l160 2 44 30 c105 74 192 244 320 625 32 96 69 202 83 235 22 56 23 70 20 200
-10 345 -12 355 -123 525 -141 217 -322 350 -522 386 -62 10 -203 13 -228 3
-23 -9 -24 -13 -20 -62 3 -42 12 -64 41 -102 43 -55 44 -65 18 -143 -33 -99
-42 -163 -40 -283 3 -233 39 -359 125 -439 77 -71 171 -104 317 -113 43 -3 81
-8 85 -11 25 -25 -142 -410 -214 -495 -45 -52 -86 -64 -224 -65 -139 0 -239 9
-299 30 -119 40 -265 132 -315 197 -32 42 -42 124 -40 327 4 308 38 479 132
663 71 139 287 419 352 456 26 14 42 33 49 54 17 50 124 125 221 155 36 12 73
20 125 28 17 2 58 11 93 20 70 18 88 37 72 79 -15 41 -92 155 -132 198 -31 32
-41 37 -79 36 -24 0 -82 -9 -129 -19z m347 -850 c33 -17 82 -49 107 -72 l47
-41 -2 -184 c-3 -267 -18 -333 -80 -333 -72 0 -166 78 -198 165 -44 118 -43
298 2 435 23 71 36 74 124 30z"/>
<path d="M5093 5521 c-184 -87 -310 -233 -459 -536 -149 -302 -201 -474 -222
-730 -9 -117 -9 -731 0 -813 13 -115 57 -178 197 -286 119 -92 190 -108 481
-109 197 -1 207 -1 255 23 157 75 390 260 472 373 21 29 40 54 43 57 15 13 99
152 123 203 25 54 58 160 72 232 11 59 15 337 5 374 -5 20 -24 59 -42 87 -31
46 -224 247 -296 307 -72 61 -213 144 -312 186 -58 24 -129 62 -158 83 l-53
40 -39 -16 c-37 -15 -87 -13 -103 4 -16 15 3 47 61 104 66 65 137 117 204 152
49 25 118 80 118 94 0 10 -134 126 -189 164 -56 39 -87 40 -158 7z m-151 -786
c-9 -58 -9 -398 0 -434 15 -58 79 -128 131 -142 53 -14 245 -6 346 16 46 9 88
25 108 41 37 28 133 140 133 155 0 16 -18 18 -175 23 -82 3 -163 8 -180 11
-40 8 -77 35 -94 71 -16 31 -27 197 -17 238 8 33 33 34 139 6 250 -66 392
-151 443 -268 32 -70 26 -257 -12 -412 -38 -150 -157 -344 -296 -482 -49 -49
-93 -88 -98 -88 -5 0 -15 -6 -22 -13 -23 -23 -146 -104 -191 -126 -67 -33
-150 -43 -299 -39 -154 4 -161 7 -175 73 -10 45 -9 499 1 645 10 148 17 223
21 231 3 3 7 26 10 51 15 122 109 364 171 437 29 35 61 38 56 6z"/>
<path d="M5550 2203 c-20 -7 -193 -79 -255 -108 -114 -51 -142 -63 -180 -76
-22 -7 -44 -16 -50 -20 -21 -14 -369 -129 -480 -159 -16 -4 -88 -24 -160 -44
-209 -59 -271 -64 -700 -61 -209 2 -405 6 -435 10 -84 9 -252 43 -380 76 -63
17 -139 37 -168 44 -29 8 -60 11 -68 8 -16 -6 -95 -164 -114 -230 -22 -72 -11
-88 77 -116 204 -65 335 -95 448 -102 44 -2 288 -5 542 -5 l461 0 159 41 c532
136 815 242 1112 414 142 82 196 153 216 283 6 42 0 53 -25 45z"/>
</g>
</svg>
